<?xml version="1.0" encoding="utf-8"?>
<!-- Generator: Adobe Illustrator 24.1.1, SVG Export Plug-In . SVG Version: 6.00 Build 0)  -->
<svg version="1.1" id="Layer_1" xmlns="http://www.w3.org/2000/svg" xmlns:xlink="http://www.w3.org/1999/xlink" x="0px" y="0px"
	 viewBox="0 0 248 30.8" style="enable-background:new 0 0 248 30.8;" xml:space="preserve">
<style type="text/css">
	.st0{fill:#C8102E;}
</style>
<g id="Layer_2_1_">
	<g id="Layer_1-2">
		<path class="st0" d="M246.6,13.7L124.3,0L1.4,13.7c-1,0.2-1.6,1.1-1.4,2c0.1,0.7,0.7,1.3,1.4,1.4l49.7,5.5l73.2,8.1l122.3-13.7
			c1-0.2,1.6-1.1,1.4-2C247.9,14.4,247.3,13.8,246.6,13.7z M132.1,26.2c-0.4,0-0.8-0.2-0.8-0.6c0-0.2,0-0.4,0.2-0.6l7.1-7.9
			c1.7-1.9,1.7-1.9-0.1-3.9l-6.9-7.3c-0.3-0.3-0.3-0.7,0-1c0.2-0.1,0.4-0.2,0.6-0.2L227,15.1L132.1,26.2z"/>
	</g>
</g>
</svg>
