<svg id="Layer_1" data-name="Layer 1" xmlns="http://www.w3.org/2000/svg" viewBox="0 0 239.66 51.95"><defs><style>.cls-1{fill:#fff;}</style></defs><title>Uinta-logo_Horizontal-white</title><path class="cls-1" d="M508.32,293.77a3.52,3.52,0,0,1,.82-1.18,3.63,3.63,0,0,1,1.2-.79,3.77,3.77,0,0,1,4.09.79,3.65,3.65,0,0,1,.81,1.18,3.58,3.58,0,0,1,.3,1.47,3.67,3.67,0,0,1-.3,1.49,3.8,3.8,0,0,1-.81,1.19,3.69,3.69,0,0,1-1.19.79,3.89,3.89,0,0,1-2.9,0,3.76,3.76,0,0,1-2-2,3.67,3.67,0,0,1-.3-1.49A3.58,3.58,0,0,1,508.32,293.77Zm.62,2.74a3,3,0,0,0,.65,1,2.94,2.94,0,0,0,1,.67,3.06,3.06,0,0,0,1.22.25,3,3,0,0,0,1.21-.25,3,3,0,0,0,1-.67,3.36,3.36,0,0,0,.65-1,3.5,3.5,0,0,0,.23-1.27,3.39,3.39,0,0,0-.23-1.25,3.19,3.19,0,0,0-.65-1,3,3,0,0,0-1-.67,3,3,0,0,0-1.21-.24,3.05,3.05,0,0,0-1.22.24,2.94,2.94,0,0,0-1,.67,2.88,2.88,0,0,0-.65,1,3.2,3.2,0,0,0-.24,1.25A3.3,3.3,0,0,0,508.94,296.51Zm3.08-3.44a1.79,1.79,0,0,1,1.16.31,1.14,1.14,0,0,1,.37.94,1.05,1.05,0,0,1-.33.86,1.55,1.55,0,0,1-.82.33l1.25,1.93h-.73l-1.19-1.88H511v1.88h-.68v-4.37Zm-.3,1.94.44,0a1.35,1.35,0,0,0,.36-.08.62.62,0,0,0,.26-.22.76.76,0,0,0,.09-.4.67.67,0,0,0-.08-.35.53.53,0,0,0-.22-.2,1,1,0,0,0-.31-.1,2.06,2.06,0,0,0-.35,0H511V295Z" transform="translate(-276.17 -280.03)"/><path class="cls-1" d="M351.14,287.36a.93.93,0,0,0-.95.86c0,4.43-.06,27.88-.07,31.5a.63.63,0,0,0,.69.58h15.38a.67.67,0,0,0,.69-.63c0-2.45,0-31,0-31.7a.65.65,0,0,0-.69-.61C361.18,287.39,356.16,287.32,351.14,287.36Z" transform="translate(-276.17 -280.03)"/><path class="cls-1" d="M280.62,315.53c0,21.07,34.13,15.76,34.14,16,0-.09,28.71-1.94,28.75-19,0-14.23.08-31.19.08-31.19a1.27,1.27,0,0,0-1.3-1.16l-12.4,0a1.27,1.27,0,0,0-1.3,1.21c0,9.6.08,16,.06,25.62,0,4.55,1.29,10.78-13.75,11.85-11.93.86-11.21-9.48-11.21-10.42,0-10.17-.08-17.22-.07-27.38a1,1,0,0,0-1-.92h-25.3c-1.19,0-1.43.51-.79,1.6,1.31,2.23,2.59,4.48,3.88,6.69a1.69,1.69,0,0,1,.23.85C280.63,294.36,280.63,306.77,280.62,315.53Z" transform="translate(-276.17 -280.03)"/><path class="cls-1" d="M473.44,287.71c-6,11.23-11.32,20.91-17.33,31.53a.72.72,0,0,0,.7,1.06h11.33a.74.74,0,0,0,.72-.38c.82-1.66.88-1.8,1.7-3.48a.56.56,0,0,1,.5-.28H490.6a.63.63,0,0,1,.5.36,86.78,86.78,0,0,1,5.49,13.24.73.73,0,0,0,.43.41c.08,0,18.28,1.83,18.37,1.79.39-.13.53-.56.38-1-3.63-11.29-7.27-20.36-15-36.37-.51-1.17.24-2.16.92-3s1.14-1.27,1.73-1.9c.4-.43,1.07-1,.94-1.69a.78.78,0,0,0-.85-.6H473.93A.57.57,0,0,0,473.44,287.71Zm1.13,21.15c2.16-4.22,4.32-8.47,6.48-12.8.08-.16.22-.17.32,0,0,0,2.69,4.59,6.15,11.76.14.34.28.68.41,1a.26.26,0,0,1-.25.35h-13A.23.23,0,0,1,474.57,308.86Z" transform="translate(-276.17 -280.03)"/><path class="cls-1" d="M418.16,288a.66.66,0,0,0-.69-.6l-8.2,0a.89.89,0,0,0-.94.82c0,4.27,0,15.59,0,16.7,0,.75-.66.92-1.07.51l-16.81-17.61a1.48,1.48,0,0,0-1-.41l-15,.05a.89.89,0,0,0-.94.83c0,2.75,0,28.9,0,31.44a.62.62,0,0,0,.68.58h15.13a.66.66,0,0,0,.69-.61V302.3a.59.59,0,0,1,1-.49l17.25,18a1.6,1.6,0,0,0,.93.44c2.78,0,5.55,0,8.33,0a.63.63,0,0,0,.69-.58C418.17,310.47,418.16,297.2,418.16,288Z" transform="translate(-276.17 -280.03)"/><path class="cls-1" d="M450.84,295.26H460.9a.81.81,0,0,0,.92-.6c.86-2,1.76-4.45,2.62-6.47,0,0,.4-.84-.62-.84h-40a.68.68,0,0,0-.73.6c0,2,0,4.71,0,6.69a.69.69,0,0,0,.73.61c2.94,0,5.88,0,8.82,0a.69.69,0,0,1,.73.61c0,4.48.06,21.3.06,23.76a.67.67,0,0,0,.69.62c5.16,0,10.17.05,15.3.05a.63.63,0,0,0,.69-.58c0-5.88,0-14.55,0-20.43v-3.42A.7.7,0,0,1,450.84,295.26Z" transform="translate(-276.17 -280.03)"/></svg>