<?xml version="1.0" encoding="utf-8"?>
<!-- Generator: Adobe Illustrator 23.1.0, SVG Export Plug-In . SVG Version: 6.00 Build 0)  -->
<svg version="1.1" id="Layer_1" xmlns="http://www.w3.org/2000/svg" xmlns:xlink="http://www.w3.org/1999/xlink" x="0px" y="0px"
	 viewBox="0 0 640 612" style="enable-background:new 0 0 640 612;" xml:space="preserve">
<style type="text/css">
	.st0{fill:#FFFFFF;}
	.st1{fill:none;}
</style>
<g>
	<g>
		<path class="st0" d="M581.9,185.9c0.5-1.1,1.2-2.1,2-2.9c0.8-0.8,1.8-1.5,3-1.9c1.1-0.5,2.3-0.7,3.6-0.7c1.3,0,2.5,0.2,3.6,0.7
			c1.1,0.5,2.1,1.1,2.9,1.9c0.8,0.8,1.5,1.8,2,2.9c0.5,1.1,0.7,2.3,0.7,3.6c0,1.3-0.2,2.6-0.7,3.7c-0.5,1.1-1.2,2.1-2,2.9
			c-0.8,0.8-1.8,1.5-2.9,1.9s-2.3,0.7-3.6,0.7c-1.3,0-2.5-0.2-3.6-0.7c-1.1-0.5-2.1-1.1-3-1.9c-0.8-0.8-1.5-1.8-2-2.9
			s-0.7-2.3-0.7-3.7C581.1,188.2,581.4,187,581.9,185.9z M583.4,192.6c0.4,1,0.9,1.8,1.6,2.5c0.7,0.7,1.5,1.3,2.4,1.7
			c0.9,0.4,1.9,0.6,3,0.6c1.1,0,2.1-0.2,3-0.6c0.9-0.4,1.7-1,2.4-1.7c0.7-0.7,1.2-1.6,1.6-2.5c0.4-1,0.6-2,0.6-3.1
			c0-1.1-0.2-2.1-0.6-3.1c-0.4-1-0.9-1.8-1.6-2.5c-0.7-0.7-1.5-1.3-2.4-1.7c-0.9-0.4-1.9-0.6-3-0.6c-1.1,0-2.1,0.2-3,0.6
			c-0.9,0.4-1.7,1-2.4,1.7c-0.7,0.7-1.2,1.5-1.6,2.5c-0.4,1-0.6,2-0.6,3.1C582.8,190.6,583,191.7,583.4,192.6z M591,184.1
			c1.3,0,2.2,0.2,2.8,0.8c0.6,0.5,0.9,1.3,0.9,2.3c0,1-0.3,1.7-0.8,2.1c-0.5,0.4-1.2,0.7-2,0.8l3.1,4.8h-1.8l-2.9-4.6h-1.8v4.6h-1.7
			v-10.8L591,184.1L591,184.1z M590.2,188.9c0.4,0,0.7,0,1.1,0c0.3,0,0.6-0.1,0.9-0.2c0.3-0.1,0.5-0.3,0.6-0.5
			c0.1-0.2,0.2-0.6,0.2-1c0-0.4-0.1-0.6-0.2-0.9c-0.1-0.2-0.3-0.4-0.5-0.5c-0.2-0.1-0.5-0.2-0.8-0.2c-0.3,0-0.6,0-0.8,0h-2.2v3.4
			L590.2,188.9L590.2,188.9z"/>
	</g>
	<g>
		<path class="st1" d="M343.4,291.8l17.1,18c4.4,4.9,4.4,4.9,0.1,9.6L343.2,339c-1.1,1.2-0.1,3.1,1.5,3L579,314.6l-234.1-25.7
			C343.3,288.7,342.3,290.7,343.4,291.8z"/>
		<path class="st0" d="M283.5,79.1c2.6-0.5,5.3-1,7.9-1.4c-0.4-2.5-0.3-5.1,0.4-7.7l1.1-4.5c-44,6.1-86.6,24.3-122.4,54.5
			c-1.5,1.3-5.5,4.8-6,5.2l0,0c-2.5,2.3-5.1,4.6-7.5,7h17.6C205.5,105.3,243.2,86.7,283.5,79.1L283.5,79.1z"/>
		<path class="st0" d="M194,172.9c-1.3,0-2.3,1-2.3,2.1c0,11-0.1,68.8-0.2,77.7c0,0.8,0.8,1.4,1.7,1.4c12.7,0,25.3,0,38,0
			c0.9,0,1.7-0.7,1.7-1.6c0-6,0-76.4,0-78.2c0-0.8-0.8-1.5-1.7-1.5C218.8,172.9,206.4,172.8,194,172.9z"/>
		<path class="st0" d="M291.6,533.2c-0.8-0.1-1.3-0.2-1.3-0.2c-13.1-2.1-25.9-5.3-38.4-9.5c-32.3-11-62-29.2-87.1-53.9
			c-6.8-6.7-50.8-48.4-64.3-118.6c0,0,0,0,0,0l-12.3-1.4c9,49,32.5,93.3,68.2,128.5c11.1,10.9,23.2,20.7,36.1,29.2
			c0.8,0.5,1,1.6,0.5,2.4c-2.9,4.6-6.6,10.4-10.9,17.1c-0.5,0.8-1.7,1.1-2.5,0.6c-14.5-9.5-28.2-20.6-40.8-33
			c-10.8-10.7-20.7-22.1-29.4-34.1l-4.8-6.8c-21.5-31.9-35.7-68-41.8-106.7L50,345.4c0.2,1.1,0.3,2,0.3,2.2
			c9.1,59.5,36.6,113.4,79.6,155.8c18.6,18.3,39.5,33.8,62.2,46.1c16.3,8.9,33.6,16.2,51.4,21.6c16.2,4.9,32.8,8.4,49.6,10.3
			c2.9,0.3,5.7,0.6,8.6,0.9l-10-40.1C291,539.2,291,536.1,291.6,533.2z"/>
		<path class="st0" d="M20,177.3c0,12.8,0,43.4,0,65c0,52,84.2,38.9,84.2,39.4c0-0.2,70.8-4.8,70.9-46.9c0.1-35.1,0.2-77,0.2-77
			c0-1.3-1.3-2.9-3.2-2.9c0,0-26.4-0.1-30.6-0.1c-1.8,0-3.2,1.3-3.2,3c0,23.7,0.2,39.6,0.1,63.2c0,11.2,3.2,26.6-33.9,29.2
			c-29.4,2.1-27.6-23.4-27.6-25.7c0-25.1-0.2-42.5-0.2-67.6c0-1.3-1.1-2.3-2.5-2.3H11.8c-2.9,0-3.6,1.3-2,3.9
			c3.3,5.5,6.4,11.1,9.6,16.5C19.8,175.9,20,176.6,20,177.3z"/>
		<path class="st0" d="M627.4,311.2l-301.9-33.8L22.4,311.2c-4.7,0.5-4.7,8,0,8.5L145,333.4l180.6,20.1l301.9-33.8
			C632.2,319.2,632.2,311.7,627.4,311.2z M344.7,342c-1.6,0.2-2.6-1.7-1.5-3l17.5-19.6c4.3-4.7,4.3-4.7-0.1-9.6l-17.1-18
			c-1.1-1.2-0.2-3.2,1.5-3L579,314.6L344.7,342z"/>
		<path class="st0" d="M495.8,173.7c-14.8,27.7-27.9,51.6-42.8,77.8c-0.6,1.1,0.1,2.6,1.7,2.6c1.7,0,18.5,0,28,0
			c0.8,0,1.5-0.3,1.8-0.9c2-4.1,2.2-4.4,4.2-8.6c0.3-0.4,0.7-0.7,1.2-0.7c16.6,0,31.5,0,48.2,0c0.5,0,0.9,0.4,1.2,0.9
			c3.4,6.4,8.5,17.3,13.5,32.7c0.1,0.5,0.6,0.8,1.1,1c0.2,0.1,45.1,4.5,45.4,4.4c0.9-0.3,1.3-1.4,0.9-2.6
			c-9-27.9-17.9-50.2-37.1-89.7c-1.2-2.9,0.6-5.3,2.3-7.3c1.4-1.6,2.8-3.1,4.2-4.7c1-1.1,2.6-2.5,2.3-4.2c-0.2-1-1.1-1.5-2.1-1.5
			c-7.4,0-70.9,0-72.9,0C496.5,173,496.1,173.3,495.8,173.7z M498.6,225.9c5.3-10.4,10.7-20.9,16-31.6c0.2-0.4,0.5-0.4,0.8,0
			c0,0,6.6,11.3,15.2,29c0.3,0.8,0.7,1.7,1,2.5c0.1,0.4-0.2,0.9-0.6,0.9l-32,0C498.6,226.7,498.4,226.3,498.6,225.9z"/>
		<path class="st0" d="M309.5,77.7c0.5,0.3,1.1,0.5,1.7,0.5c0.8,0,1.7-0.3,2.3-0.9l12.2-11.3l12.2,11.3c0.6,0.6,1.5,0.9,2.3,0.9
			c0.6,0,1.2-0.2,1.7-0.5c1.3-0.8,1.9-2.3,1.6-3.8L329,15.9c0-0.1-0.1-0.1-0.1-0.2c-0.4-1.4-1.9-2.5-3.4-2.3
			c-1.4,0.2-2.8,1.1-3.2,2.5l-14.5,58.1C307.5,75.4,308.2,76.9,309.5,77.7z"/>
		<path class="st0" d="M341.9,534.3c-0.5-0.3-1.1-0.5-1.7-0.5c-0.8,0-1.7,0.3-2.3,0.9l-12.2,11.3l-12.2-11.3
			c-0.6-0.6-1.5-0.9-2.3-0.9c-0.6,0-1.2,0.2-1.7,0.5c-1.3,0.8-1.9,2.3-1.6,3.8l14.5,58.1c0,0.1,0.1,0.1,0.1,0.2
			c0.4,1.4,1.9,2.5,3.4,2.3c1.4-0.2,2.8-1.1,3.2-2.5l14.5-58.1C343.8,536.6,343.2,535.1,341.9,534.3z"/>
		<path class="st0" d="M131.4,123.8c0.5-0.5,5.2-5.4,7.1-7.3c1.1-1.1,2.2-2.2,3.3-3.2c1.7-1.6,7.3-6.7,8.3-7.6
			c2.3-2,7.9-6.7,8.5-7.2c8.9-7.1,18.2-13.7,27.9-19.6c9.7-5.9,19.8-11.3,30.2-15.9c8.3-3.7,16.8-7,25.5-9.8
			c3.8-1.2,7.5-2.4,11.4-3.4c4.1-1.1,8.2-2.1,12.3-3.1c7.6-1.7,15.2-3.1,22.9-4.1c3.4-0.4,6.7-0.9,10.1-1.2l3.2-12.7
			c-6,0.5-12,1.2-18,2.1c-5.6,0.8-11.1,1.9-16.5,3c0,0-0.1,0-0.1,0C214,44.8,165.8,71.2,127,110.5c-4.6,4.7-9.1,9.6-13.3,14.6
			c0,0-3.9,4.8-5.8,7.2h16C126.3,129.4,128.8,126.6,131.4,123.8z"/>
		<path class="st0" d="M376,44.9c30.2,5.9,58.8,16.9,84.8,32.5c1.2,0.7,1.6,2.4,0.9,3.6l-9,14.3c-0.7,1.2-2.3,1.5-3.5,0.8
			c-27.9-16.4-58.8-27-91.1-31.1l1.3,5.1c0.6,2.4,0.7,4.9,0.4,7.3c47,6.8,92.2,28,128.6,63.8c2.6,2.5,5.9,6.3,8.6,9.1h58.7
			c-0.1-0.1-0.1-0.3-0.1-0.3c-10.3-15.2-22.1-29.4-35.4-42.6c-46.6-45.9-106.6-73.4-171-78.9l3.2,12.8
			C360.2,42.2,368.1,43.4,376,44.9z"/>
		<path class="st0" d="M292.3,208.5c0,0,36.3,37.9,42.6,44.4c0.9,0.9,1.9,1,2.3,1.1c6.8,0,13.7-0.1,20.5,0c0.9,0,1.7-0.6,1.7-1.4
			c0-22.8,0-55.5,0-78.2c0-0.8-0.8-1.5-1.7-1.5c-6.7,0-13.5,0-20.2,0c-1.3,0-2.3,0.9-2.3,2c0,10.6,0,38.5,0,41.2
			c0,1.9-1.6,2.3-2.6,1.3c-0.4-0.4-35.6-37.3-41.5-43.5c-0.1-0.1-1-1-2.5-1c-12.1,0-24.8,0-36.9,0.1c-1.3,0-2.3,0.9-2.3,2
			c0,6.8-0.1,71.3-0.1,77.6c0,0.8,0.8,1.4,1.7,1.4c12.5,0,24.9,0,37.3,0c0.9,0,1.7-0.7,1.7-1.5c0-10.9,0-31.9,0-42.9
			C289.8,208.3,291.4,207.6,292.3,208.5z"/>
		<path class="st0" d="M440,192.4c0,0,16.5,0,24.8,0c1,0,1.7-0.1,2.2-1.5c2.1-4.9,4.3-11,6.5-16c0,0,1-2.1-1.6-2.1h-98.7
			c-1,0-1.8,0.6-1.8,1.5c0,4.9,0,11.6,0,16.5c0,0.8,0.8,1.5,1.8,1.5c7.3,0.1,14.5-0.1,21.8,0c1,0,1.8,0.7,1.8,1.5
			c0,11.1,0.1,52.6,0.1,58.6c0,0.8,0.8,1.6,1.7,1.6c12.7,0,25.1,0.1,37.8,0.1c0.9,0,1.7-0.6,1.7-1.4c0-14.5,0-35.9-0.1-50.4l0-8.4
			C438.2,193.1,439,192.4,440,192.4z"/>
		<path class="st0" d="M551.8,354.5c-9.2,42.6-30.2,81.4-61,112.7c-23.8,24.1-52.9,42.9-84.6,54.6c-15.1,5.6-30.6,9.5-46.5,11.7
			c0.5,2.8,0.5,5.7-0.2,8.6l-10,39.9c8.4-0.7,16.8-1.9,25-3.3c0.1,0,0.2,0,0.3,0c56-10.1,107.4-37,148.2-78.4
			c24.1-24.5,43.7-53.5,57.3-85.1c3.2-7.5,6.1-15.2,8.7-22.9c2.6-7.8,4.8-15.8,6.6-23.9c0.4-1.7,0.7-3.4,1.1-5.1
			c0.7-3.8,1.4-7.6,2.1-11.3c0.1-0.5,0.7-5.3,1-5.3l-47.4,5.3C552.1,352.8,552,353.7,551.8,354.5z"/>
		<g>
			<g>
				<path class="st0" d="M163.3,425.9c-1.4,0-1.9-0.6-1.9-2c0-19.6,0-29.3,0-48.9c0-1.4,0.5-2,1.9-1.8c5.7,0.7,8.5,1,14.2,1.7
					c14.1,1.6,18.9,6.8,18.9,12.9c0,1.7,0,2.6,0,4.3c0,3.5-1.8,6.2-5.8,7.8c5.3,2,8.3,5.2,8.3,9.1c0,2.3,0,3.4,0,5.7
					c0,6-4.7,11.4-18.9,11.3C173.3,425.9,169.9,425.9,163.3,425.9z M171.9,382.4c0,5.3,0,7.9,0,13.2c2.3,0.2,3.5,0.2,5.8,0.4
					c5,0.3,8.2-1.3,8.2-5c0-1,0-1.6,0-2.6c0-3.7-3.2-5-8.4-5.5C175.3,382.8,174.1,382.7,171.9,382.4z M171.9,403.4
					c0,5.7,0,8.6,0,14.3c3.2,0.1,4.8,0.1,8,0.1c5.2,0.1,8.5-1.6,8.5-5.3c0-1.3,0-2,0-3.3c0-3.2-3.3-5.2-8.5-5.5
					C176.7,403.7,175.1,403.6,171.9,403.4z"/>
				<path class="st0" d="M221.7,408.1c0,6.4,0,9.6,0,16.1c0,1.2-0.5,1.8-1.9,1.8c-2.7,0-4.1,0-6.8,0c-1.4,0-1.9-0.6-1.9-1.8
					c0-17.6-0.1-26.5-0.1-44.1c0-1.3,0.5-1.8,1.9-1.7c6.6,0.6,9.8,0.8,16.4,1.3c14.1,1,18.9,6.5,18.9,12c0,2.5,0,3.8,0,6.3
					c0,3.9-2.3,7.6-8.6,9.3c3.4,6.9,5.1,10.2,8.5,16.9c0.5,1.1-0.4,1.7-1.8,1.7c-2.7,0-4.1,0-6.9,0c-1.1,0-1.4-0.7-1.9-1.8
					c-3.1-6.3-4.6-9.5-7.7-15.9c-0.2,0-0.3,0-0.5,0C226.4,408.3,224.8,408.2,221.7,408.1z M221.7,386.8c0,5.4,0,8.2,0,13.6
					c3.1,0.1,4.6,0.2,7.7,0.3c5.2,0.2,8.4-1.4,8.4-4.7c0-1.3,0-1.9,0-3.2c0-3.4-3.2-5.2-8.4-5.5C226.3,387.1,224.7,387,221.7,386.8z
					"/>
				<path class="st0" d="M263,426c-1.4,0-1.9-0.5-1.9-1.7c0-16.4,0-24.6-0.1-41c0-1.2,0.5-1.7,1.9-1.6c10.7,0.5,16,0.7,26.7,1
					c1.3,0,1.9,0.4,1.9,1.6c0,1.6,0,2.4,0,4c0,1.2-0.6,1.6-1.9,1.6c-7.2-0.2-10.8-0.3-18.1-0.5c0,4.2,0,6.3,0,10.5
					c6.7,0.2,10,0.2,16.7,0.3c1.4,0,2,0.4,2,1.6c0,1.5,0,2.3,0,3.8c0,1.1-0.6,1.5-2,1.5c-6.7-0.1-10-0.1-16.7-0.2c0,4.8,0,7.2,0,12
					c7.5,0,11.3,0.1,18.8,0.1c1.4,0,1.9,0.4,1.9,1.5c0,1.6,0,2.4,0,4c0,1.1-0.5,1.6-1.9,1.6C279.5,426,274,426,263,426z"/>
				<path class="st0" d="M346.3,406.1c0.6,2.1,1.2,5.7,1.2,6.3c0.1-0.4,0.5-3.4,1.4-6.2c2.7-8.7,4-13,6.7-21.8
					c0.3-1,0.9-1.6,2.3-1.7c2.4,0,3.6-0.1,5.9-0.2c1.4,0,1.8,0.5,1.5,1.6c-5,16.3-7.5,24.3-12.5,40.3c-0.3,1.1-1.1,1.6-2.4,1.6
					c-2.7,0-4,0-6.6,0c-1.2,0-1.9-0.6-2.2-1.6c-2.7-8.8-4.1-13.2-6.9-22c-0.5-1.4-1-5-1.1-5.7c-0.1,0.6-0.7,4.5-1.1,5.7
					c-2.8,8.8-4.1,13.2-6.9,22c-0.3,1.1-1,1.6-2.4,1.6c-2.7,0-4,0-6.6,0c-1.2,0-1.9-0.6-2.2-1.6c-5-15.9-7.5-23.9-12.5-39.9
					c-0.3-1,0.1-1.6,1.5-1.6c2.8,0,4.2,0.1,7,0.1c1.3,0,1.9,0.6,2.3,1.6c2.6,8.6,3.9,13,6.6,21.6c0.7,2.3,1.3,5.3,1.3,5.3
					s0.4-2.1,1.4-5.3c2.7-8.6,4-12.9,6.7-21.5c0.3-1,0.9-1.6,2.3-1.6c2.5,0,3.8,0,6.3,0c1.4,0,2,0.5,2.3,1.6
					C342.3,393.2,343.6,397.5,346.3,406.1z"/>
				<path class="st0" d="M387.1,424.3c0,1.2-0.5,1.7-1.9,1.7c-2.7,0-4.1,0-6.8,0c-1.4,0-1.9-0.5-1.9-1.7c0-16.2,0-24.3,0.1-40.5
					c0-1.2,0.5-1.7,1.9-1.8c2.7-0.1,4.1-0.2,6.8-0.3c1.4-0.1,1.9,0.4,1.9,1.6C387.1,399.7,387.1,407.9,387.1,424.3z"/>
				<path class="st0" d="M438.6,424.2c0,1.2-0.5,1.8-1.9,1.8c-2.5,0-3.7,0-6.2,0c-1,0-1.4-0.2-1.8-0.8c-6-9.1-9-13.6-15-22.3
					c-2.1-3-3-5.1-3.1-5.3c0,10.7,0,16.1-0.1,26.8c0,1.1-0.5,1.7-1.9,1.7c-2.5,0-3.7,0-6.2,0c-1.4,0-1.9-0.5-1.9-1.7
					c0-16.7,0.1-25,0.1-41.8c0-1.1,0.5-1.7,1.9-1.8c2.5-0.1,3.7-0.2,6.2-0.4c0.9,0,1.3,0.1,1.6,0.6c6.3,8.9,9.4,13.4,15.6,22.6
					c1.3,1.9,2.6,4.7,2.6,4.7c0-11.1,0-16.6,0.1-27.6c0-1.2,0.5-1.8,1.9-1.9c2.5-0.2,3.7-0.3,6.2-0.5c1.4-0.1,1.9,0.4,1.9,1.6
					C438.7,397.7,438.7,406.5,438.6,424.2z"/>
				<path class="st0" d="M486.5,398.2c1.3-0.1,1.9,0.3,1.9,1.7c0,5.6,0,8.3,0,13.9c0,6.5-4.2,12.7-18.4,12.7s-18.3-5.7-18.3-11.7
					c0-10.7,0-16,0-26.6c0-6,4.2-12.1,18.3-13.6c14.1-1.6,18.3,4,18.3,10.5c0,1.3,0,1.9,0,3.1c0,1.3-0.5,2-1.8,2.1
					c-2.6,0.2-3.9,0.3-6.5,0.5c-1.4,0.1-1.9-0.4-1.9-1.8c0-0.5,0-0.7,0-1.2c0-3.8-2.7-5.4-7.9-4.9c-5.2,0.5-7.9,2.6-7.9,6.2
					c0,9.5,0,14.2,0,23.7c0,3.7,2.6,5.5,7.9,5.4c5.2-0.1,8-2,8-5.8c0-2,0-3.1,0-5.1c-3.1,0.1-4.6,0.2-7.6,0.3c-1.4,0-2-0.4-2-1.7
					c0-1.9,0-2.9,0-4.8c0-1.3,0.6-1.8,2-1.9C476.9,398.9,480.1,398.7,486.5,398.2z"/>
			</g>
		</g>
	</g>
</g>
</svg>
